<mxfile host="app.diagrams.net" modified="2024-05-30T04:02:13.764Z" agent="Mozilla/5.0 (Macintosh; Intel Mac OS X 10_15_7) AppleWebKit/537.36 (KHTML, like Gecko) Chrome/125.0.0.0 Safari/537.36" version="24.4.10" etag="29pzsYuSfPJFImPnufgO" type="github">
  <diagram name="Page-1" id="U4QPqFUNYogPxGpJg-3b">
    <mxGraphModel>
      <root>
        <mxCell id="0" />
        <mxCell id="1" parent="0" />
      </root>
    </mxGraphModel>
  </diagram>
</mxfile>
